<mxfile host="app.diagrams.net" agent="Mozilla/5.0 (Windows NT 10.0; Win64; x64) AppleWebKit/537.36 (KHTML, like Gecko) Chrome/131.0.0.0 Safari/537.36" version="26.0.6">
  <diagram name="Page-1" id="bDvcypGX-Qz7ygBv5LlQ">
    <mxGraphModel dx="1050" dy="530" grid="1" gridSize="10" guides="1" tooltips="1" connect="1" arrows="1" fold="1" page="1" pageScale="1" pageWidth="850" pageHeight="1100" math="0" shadow="1">
      <root>
        <mxCell id="0" />
        <mxCell id="1" parent="0" />
        <mxCell id="ve5tehwe5ekPfCzmSLh6-1" value="" style="verticalLabelPosition=bottom;verticalAlign=top;html=1;shape=mxgraph.basic.patternFillRect;fillStyle=diag;step=5;fillStrokeWidth=0.2;fillStrokeColor=#dddddd;" vertex="1" parent="1">
          <mxGeometry y="30" width="850" height="60" as="geometry" />
        </mxCell>
        <mxCell id="ve5tehwe5ekPfCzmSLh6-2" value="Nav Bar" style="text;html=1;align=center;verticalAlign=middle;whiteSpace=wrap;rounded=0;fontSize=28;" vertex="1" parent="1">
          <mxGeometry x="340" y="60" width="170" height="30" as="geometry" />
        </mxCell>
        <mxCell id="ve5tehwe5ekPfCzmSLh6-4" value="" style="ellipse;whiteSpace=wrap;html=1;aspect=fixed;" vertex="1" parent="1">
          <mxGeometry x="30" y="20" width="80" height="80" as="geometry" />
        </mxCell>
        <mxCell id="ve5tehwe5ekPfCzmSLh6-5" value="Logo" style="text;html=1;align=center;verticalAlign=middle;whiteSpace=wrap;rounded=0;" vertex="1" parent="1">
          <mxGeometry x="40" y="45" width="60" height="30" as="geometry" />
        </mxCell>
        <mxCell id="ve5tehwe5ekPfCzmSLh6-6" value="CafÃ© Italia" style="text;html=1;align=center;verticalAlign=middle;whiteSpace=wrap;rounded=0;fontSize=25;" vertex="1" parent="1">
          <mxGeometry x="130" y="45" width="190" height="30" as="geometry" />
        </mxCell>
        <mxCell id="ve5tehwe5ekPfCzmSLh6-8" value="" style="rounded=1;whiteSpace=wrap;html=1;" vertex="1" parent="1">
          <mxGeometry x="490" y="40" width="100" height="40" as="geometry" />
        </mxCell>
        <mxCell id="ve5tehwe5ekPfCzmSLh6-9" value="" style="rounded=1;whiteSpace=wrap;html=1;" vertex="1" parent="1">
          <mxGeometry x="610" y="40" width="100" height="40" as="geometry" />
        </mxCell>
        <mxCell id="ve5tehwe5ekPfCzmSLh6-10" value="" style="rounded=1;whiteSpace=wrap;html=1;" vertex="1" parent="1">
          <mxGeometry x="740" y="40" width="100" height="40" as="geometry" />
        </mxCell>
        <mxCell id="ve5tehwe5ekPfCzmSLh6-11" value="Home" style="text;html=1;align=center;verticalAlign=middle;whiteSpace=wrap;rounded=0;" vertex="1" parent="1">
          <mxGeometry x="510" y="45" width="60" height="30" as="geometry" />
        </mxCell>
        <mxCell id="ve5tehwe5ekPfCzmSLh6-12" value="Menu" style="text;html=1;align=center;verticalAlign=middle;whiteSpace=wrap;rounded=0;" vertex="1" parent="1">
          <mxGeometry x="630" y="45" width="60" height="30" as="geometry" />
        </mxCell>
        <mxCell id="ve5tehwe5ekPfCzmSLh6-13" value="Coupons" style="text;html=1;align=center;verticalAlign=middle;whiteSpace=wrap;rounded=0;" vertex="1" parent="1">
          <mxGeometry x="760" y="45" width="60" height="30" as="geometry" />
        </mxCell>
        <mxCell id="ve5tehwe5ekPfCzmSLh6-35" value="&lt;h1 style=&quot;margin-top: 0px;&quot;&gt;&amp;nbsp; &amp;nbsp;Sign up for a Monthly Coupon&amp;nbsp; &amp;nbsp; &amp;nbsp; &amp;nbsp; &amp;nbsp;and a Free B-Day Pastry!&lt;/h1&gt;&lt;div&gt;&lt;br&gt;&lt;/div&gt;&lt;div&gt;&lt;br&gt;&lt;/div&gt;" style="text;html=1;whiteSpace=wrap;overflow=hidden;rounded=0;fontSize=26;" vertex="1" parent="1">
          <mxGeometry y="120" width="830" height="150" as="geometry" />
        </mxCell>
        <mxCell id="ve5tehwe5ekPfCzmSLh6-61" value="" style="rounded=1;whiteSpace=wrap;html=1;" vertex="1" parent="1">
          <mxGeometry x="80" y="320" width="280" height="60" as="geometry" />
        </mxCell>
        <mxCell id="ve5tehwe5ekPfCzmSLh6-62" value="" style="rounded=1;whiteSpace=wrap;html=1;" vertex="1" parent="1">
          <mxGeometry x="400" y="320" width="280" height="60" as="geometry" />
        </mxCell>
        <mxCell id="ve5tehwe5ekPfCzmSLh6-63" value="First Name" style="text;html=1;align=center;verticalAlign=middle;whiteSpace=wrap;rounded=0;fontSize=20;" vertex="1" parent="1">
          <mxGeometry x="80" y="335" width="280" height="30" as="geometry" />
        </mxCell>
        <mxCell id="ve5tehwe5ekPfCzmSLh6-64" value="Last Name" style="text;html=1;align=center;verticalAlign=middle;whiteSpace=wrap;rounded=0;fontSize=20;" vertex="1" parent="1">
          <mxGeometry x="400" y="335" width="280" height="30" as="geometry" />
        </mxCell>
        <mxCell id="ve5tehwe5ekPfCzmSLh6-65" value="" style="rounded=1;whiteSpace=wrap;html=1;" vertex="1" parent="1">
          <mxGeometry x="175" y="440" width="410" height="60" as="geometry" />
        </mxCell>
        <mxCell id="ve5tehwe5ekPfCzmSLh6-66" value="Receive Coupons by Text" style="text;html=1;align=center;verticalAlign=middle;whiteSpace=wrap;rounded=0;fontSize=20;" vertex="1" parent="1">
          <mxGeometry x="165" y="410" width="400" height="30" as="geometry" />
        </mxCell>
        <mxCell id="ve5tehwe5ekPfCzmSLh6-67" value="Phone Number" style="text;html=1;align=left;verticalAlign=middle;whiteSpace=wrap;rounded=0;fontSize=19;" vertex="1" parent="1">
          <mxGeometry x="195" y="455" width="370" height="30" as="geometry" />
        </mxCell>
        <mxCell id="ve5tehwe5ekPfCzmSLh6-68" value="" style="rounded=1;whiteSpace=wrap;html=1;" vertex="1" parent="1">
          <mxGeometry x="175" y="560" width="410" height="60" as="geometry" />
        </mxCell>
        <mxCell id="ve5tehwe5ekPfCzmSLh6-69" value="Receive Coupons by Email" style="text;html=1;align=center;verticalAlign=middle;whiteSpace=wrap;rounded=0;fontSize=20;" vertex="1" parent="1">
          <mxGeometry x="165" y="530" width="400" height="30" as="geometry" />
        </mxCell>
        <mxCell id="ve5tehwe5ekPfCzmSLh6-70" value="Email@gmail.com" style="text;html=1;align=left;verticalAlign=middle;whiteSpace=wrap;rounded=0;fontSize=19;" vertex="1" parent="1">
          <mxGeometry x="190" y="575" width="370" height="30" as="geometry" />
        </mxCell>
        <mxCell id="ve5tehwe5ekPfCzmSLh6-71" value="Month" style="rounded=1;whiteSpace=wrap;html=1;fontSize=19;" vertex="1" parent="1">
          <mxGeometry x="240" y="700" width="120" height="60" as="geometry" />
        </mxCell>
        <mxCell id="ve5tehwe5ekPfCzmSLh6-72" value="&lt;font style=&quot;font-size: 20px;&quot;&gt;Day&lt;/font&gt;" style="rounded=1;whiteSpace=wrap;html=1;" vertex="1" parent="1">
          <mxGeometry x="390" y="700" width="120" height="60" as="geometry" />
        </mxCell>
        <mxCell id="ve5tehwe5ekPfCzmSLh6-73" value="Receive a Coupon for a FREE Pastry on your Birthday!" style="text;html=1;align=left;verticalAlign=middle;whiteSpace=wrap;rounded=0;fontSize=20;" vertex="1" parent="1">
          <mxGeometry x="140" y="660" width="600" height="30" as="geometry" />
        </mxCell>
        <mxCell id="ve5tehwe5ekPfCzmSLh6-74" value="" style="rounded=1;whiteSpace=wrap;html=1;" vertex="1" parent="1">
          <mxGeometry x="140" y="840" width="540" height="200" as="geometry" />
        </mxCell>
        <mxCell id="ve5tehwe5ekPfCzmSLh6-76" value="Questions or comments? Send us a message!" style="text;html=1;align=left;verticalAlign=middle;whiteSpace=wrap;rounded=0;fontSize=20;" vertex="1" parent="1">
          <mxGeometry x="150" y="800" width="600" height="30" as="geometry" />
        </mxCell>
        <mxCell id="ve5tehwe5ekPfCzmSLh6-77" value="Submit Button" style="rounded=1;whiteSpace=wrap;html=1;fontSize=17;" vertex="1" parent="1">
          <mxGeometry x="320" y="1090" width="160" height="60" as="geometry" />
        </mxCell>
      </root>
    </mxGraphModel>
  </diagram>
</mxfile>
